<?xml version="1.0" standalone="no"?>
<!DOCTYPE svg PUBLIC "-//W3C//DTD SVG 20010904//EN"
 "http://www.w3.org/TR/2001/REC-SVG-20010904/DTD/svg10.dtd">
<svg version="1.0" xmlns="http://www.w3.org/2000/svg"
 width="512.000000pt" height="512.000000pt" viewBox="0 0 512.000000 512.000000"
 preserveAspectRatio="xMidYMid meet">
<metadata>
Created by potrace 1.14, written by Peter Selinger 2001-2017
</metadata>
<g transform="translate(0.000000,512.000000) scale(0.100000,-0.100000)"
fill="#000000" stroke="none">
<path d="M4533 4883 c-13 -2 -32 -16 -43 -30 -20 -25 -20 -39 -20 -569 0 -299
-2 -544 -4 -544 -2 0 -32 27 -66 60 -52 50 -69 60 -97 60 -46 0 -72 -15 -88
-52 -22 -54 -5 -81 147 -234 154 -156 186 -176 235 -150 36 19 305 288 315
316 21 56 -26 120 -89 120 -29 0 -45 -10 -97 -60 -35 -33 -65 -60 -67 -60 -3
0 -4 235 -4 523 1 287 -3 536 -7 552 -8 33 -54 76 -78 74 -8 -1 -25 -4 -37 -6z"/>
<path d="M46 3383 c-15 -8 -31 -25 -36 -39 -6 -16 -10 -600 -10 -1530 0 -1644
-3 -1549 57 -1572 40 -15 4966 -15 5006 0 58 22 57 14 57 642 0 388 -3 583
-11 599 -23 51 -23 51 -479 53 -234 1 -428 2 -432 3 -5 1 -8 192 -8 426 0 451
-2 470 -47 491 -10 4 -252 9 -538 10 -286 1 -523 3 -527 3 -5 1 -8 196 -8 435
l0 435 -24 28 -24 28 -1474 1 c-1262 1 -1478 -1 -1502 -13z"/>
</g>
</svg>
